<svg id="Capa_1" enable-background="new 0 0 512.005 512.005" height="512" viewBox="0 0 512.005 512.005" width="512" xmlns="http://www.w3.org/2000/svg"><g><g><g><g><g><g><g><path d="m362.008 205.313v-123.596l-106.005-61.798-106.006 61.798v123.596l106.006 61.798z" fill="#fff59b"/></g></g></g></g></g></g><g><path d="m505.419 393.586-27.405-9.961v-109.525l27.405-9.961c5.19-1.887 7.869-7.624 5.982-12.814-1.887-5.191-7.622-7.872-12.814-5.982l-29.578 10.75-101.964-59.443c-3.113-1.814-6.96-1.814-10.073 0l-100.969 58.863-100.969-58.863c-3.113-1.814-6.96-1.814-10.073 0l-101.965 59.443-29.578-10.75c-5.192-1.888-10.928.792-12.814 5.982-1.887 5.19.792 10.928 5.982 12.814l27.405 9.961v109.524l-27.405 9.961c-5.19 1.887-7.869 7.624-5.982 12.814 1.477 4.063 5.313 6.587 9.399 6.587 1.134 0 2.288-.194 3.415-.604l29.529-10.733 97.029 56.566v23.871c0 5.522 4.477 10 10 10s10-4.478 10-10v-23.848l96.025-55.981 96.025 55.981v23.848c0 5.522 4.477 10 10 10s10-4.478 10-10v-23.871l97.029-56.566 29.529 10.733c1.128.41 2.281.604 3.415.604 4.086 0 7.923-2.524 9.399-6.587 1.89-5.189-.789-10.927-5.979-12.813zm-451.427-120.753 96.005-55.969 96.005 55.969v112.105l-96.005 55.968-96.005-55.968zm404.021 112.105-96.005 55.968-96.005-55.968v-112.105l96.005-55.969 96.005 55.969z" fill="#020288"/></g></g></svg>